<?xml version="1.0" standalone="no"?>
<!DOCTYPE svg PUBLIC "-//W3C//DTD SVG 20010904//EN"
 "http://www.w3.org/TR/2001/REC-SVG-20010904/DTD/svg10.dtd">
<svg version="1.0" xmlns="http://www.w3.org/2000/svg"
 width="512.000000pt" height="512.000000pt" viewBox="0 0 512.000000 512.000000"
 preserveAspectRatio="xMidYMid meet">

<g transform="translate(0.000000,512.000000) scale(0.100000,-0.100000)"
fill="#000000" stroke="none">
<path d="M2431 5099 c-271 -53 -486 -221 -566 -441 l-21 -59 -455 -200 c-250
-110 -464 -204 -476 -209 -39 -16 -100 -79 -122 -124 -49 -105 -34 -216 41
-300 23 -27 90 -90 149 -141 l108 -94 -272 -3 -272 -3 -65 -31 c-83 -39 -145
-101 -184 -184 l-31 -65 -3 -471 -3 -472 -43 -6 c-53 -8 -124 -52 -159 -98
-56 -73 -57 -83 -57 -560 l0 -439 25 -24 c31 -32 69 -32 100 0 l25 24 0 431
c0 474 0 474 61 505 25 14 64 16 235 13 l206 -3 29 -33 29 -32 0 -960 0 -960
-280 0 -280 0 0 389 c0 365 -1 390 -19 412 -26 32 -86 32 -112 0 -18 -22 -19
-48 -19 -461 0 -427 0 -438 21 -464 l20 -26 2519 0 2519 0 20 26 c21 26 21 37
21 464 0 413 -1 439 -19 461 -13 17 -29 23 -56 23 -27 0 -43 -6 -56 -23 -18
-22 -19 -47 -19 -412 l0 -389 -280 0 -280 0 0 960 0 960 29 32 29 33 206 3
c171 3 210 1 235 -13 61 -31 61 -31 61 -505 l0 -431 25 -24 c31 -32 69 -32
100 0 l25 24 0 439 c0 477 -1 487 -57 560 -35 46 -106 90 -159 98 l-43 6 -3
472 -3 471 -31 65 c-39 83 -101 145 -184 184 l-65 31 -272 3 -272 3 108 94
c59 51 126 114 148 139 75 85 91 198 42 302 -21 45 -83 108 -122 124 -119 51
-930 410 -934 413 -2 3 -11 31 -20 63 -20 78 -56 147 -104 199 -40 43 -127 95
-160 95 -9 0 -38 17 -65 39 -65 51 -120 78 -196 96 -68 16 -226 18 -297 4z
m321 -166 c25 -12 66 -40 91 -62 25 -23 59 -44 78 -47 89 -17 154 -80 185
-178 11 -33 18 -104 21 -201 l6 -150 -34 28 c-69 54 -196 128 -248 143 -99 30
-178 12 -391 -86 -182 -84 -237 -101 -363 -107 l-109 -6 4 164 c3 157 4 166
32 223 60 124 220 241 388 286 101 27 272 24 340 -7z m-912 -648 l0 -145 -202
-101 c-112 -56 -213 -110 -225 -122 -46 -42 -27 -92 52 -137 30 -17 55 -34 55
-37 0 -14 -175 -213 -186 -211 -14 4 -256 203 -343 284 -71 65 -90 110 -72
167 7 19 19 41 29 50 9 8 168 82 352 163 184 81 378 166 430 190 52 23 98 43
103 43 4 1 7 -64 7 -144z m1890 -50 c234 -103 433 -194 442 -202 10 -9 22 -31
29 -50 20 -61 0 -101 -89 -180 -126 -113 -320 -273 -330 -273 -9 0 -182 203
-182 213 0 3 25 20 55 37 79 45 98 95 53 137 -13 12 -114 66 -225 122 l-203
101 0 146 c0 113 3 145 13 141 6 -3 203 -89 437 -192z m-836 46 c37 -23 105
-71 152 -108 l86 -66 -6 -41 c-35 -223 -206 -415 -422 -471 -75 -19 -213 -19
-288 0 -198 52 -365 220 -411 416 -26 112 -27 109 64 109 146 0 258 31 456
125 210 100 261 105 369 36z m-1015 -371 c13 -38 41 -98 62 -132 20 -35 36
-64 34 -66 -11 -11 -142 36 -219 78 -149 80 -147 69 -21 133 61 31 112 56 115
56 3 1 16 -30 29 -69z m1503 14 c129 -65 131 -54 -18 -134 -81 -44 -209 -89
-220 -77 -3 2 11 29 31 58 19 30 48 89 63 131 15 43 28 78 30 78 1 0 53 -25
114 -56z m-1644 -294 c95 -49 187 -70 309 -70 87 0 95 -2 150 -35 32 -19 94
-47 138 -62 73 -26 93 -28 225 -28 132 0 152 2 225 28 44 15 106 43 138 62 55
33 63 35 150 35 122 0 211 21 309 70 44 23 81 40 82 38 2 -2 47 -56 101 -122
l99 -119 -59 -51 c-204 -174 -318 -313 -379 -464 l-31 -77 -3 -236 -4 -236
-381 -108 c-210 -59 -385 -108 -388 -109 -4 0 -26 28 -50 64 -81 120 -189 179
-346 187 l-93 6 0 189 c0 217 -9 267 -70 387 -65 130 -160 239 -344 397 l-60
51 100 121 c54 67 100 122 101 122 1 0 38 -18 81 -40z m-327 -363 c211 -179
293 -279 345 -423 23 -61 24 -78 24 -284 l0 -219 -34 -26 c-47 -36 -102 -119
-120 -184 -9 -30 -16 -91 -16 -136 l0 -81 -64 -17 c-54 -14 -114 -17 -375 -17
l-311 0 0 108 c0 86 -4 116 -21 152 -27 60 -74 107 -134 136 -44 21 -65 24
-172 24 l-123 0 0 443 c0 286 4 456 11 481 14 50 83 123 134 141 31 11 113 14
381 15 l341 0 134 -113z m3144 102 c53 -15 129 -91 144 -144 7 -26 11 -190 11
-482 l0 -443 -122 0 c-108 0 -129 -3 -173 -24 -60 -29 -107 -76 -134 -136 -17
-36 -21 -66 -21 -152 l0 -108 -217 0 -218 0 0 103 c0 99 -2 106 -37 178 -40
81 -106 155 -172 194 -57 33 -157 57 -223 53 l-54 -3 3 205 3 205 32 68 c65
137 146 229 357 406 l109 91 336 0 c215 0 350 -4 376 -11z m-1028 -1137 c54
-28 118 -102 137 -159 21 -62 20 -148 -3 -198 -20 -45 -69 -91 -119 -112 -27
-11 -1415 -323 -1439 -323 -9 0 -129 418 -122 423 2 2 166 49 364 105 198 56
509 145 690 197 364 105 405 111 492 67z m-1414 -2 c53 -20 116 -70 137 -110
11 -21 34 -13 -302 -109 -97 -28 -180 -51 -184 -51 -16 0 4 139 26 178 25 44
79 87 126 102 53 15 141 11 197 -10z m-206 -671 c84 -289 93 -358 56 -440 -34
-77 -141 -177 -162 -153 -13 15 -225 773 -218 780 8 9 230 73 241 70 5 -1 42
-117 83 -257z m-455 71 c15 -52 30 -105 33 -118 l5 -22 -312 2 -313 3 -3 104
c-1 58 0 111 2 118 5 11 59 13 283 11 l277 -3 28 -95z m2806 -18 c2 -84 -1
-114 -10 -117 -7 -3 -276 -4 -598 -3 l-585 3 80 18 c44 11 156 36 248 58 185
42 250 67 316 123 l43 36 252 -2 251 -3 3 -113z m-2651 -530 c71 -251 73 -260
75 -386 l3 -130 -39 -8 c-149 -32 -290 -180 -327 -343 l-12 -55 -224 0 -223 0
0 590 0 590 338 0 337 0 72 -258z m2653 -332 l0 -590 -910 0 -910 0 0 590 0
590 910 0 910 0 0 -590z m-1972 198 l-3 -373 -222 -3 -223 -2 0 28 c0 16 -3
69 -6 118 l-6 89 56 28 c149 72 246 222 249 385 2 69 3 73 27 78 14 4 39 10
55 14 17 5 40 9 53 9 l22 1 -2 -372z m2 -658 l0 -130 -415 0 -415 0 6 28 c13
57 47 113 95 156 80 72 93 74 432 75 l297 1 0 -130z"/>
<path d="M1086 2909 c-37 -29 -36 -77 4 -122 l29 -34 -24 -23 c-48 -45 -50
-102 -3 -134 32 -23 49 -20 97 14 l42 31 37 -31 c43 -35 69 -38 106 -9 36 28
35 74 -3 119 l-29 35 29 35 c38 45 39 91 3 119 -40 31 -55 28 -136 -31 -13
-10 -22 -6 -52 20 -43 37 -64 40 -100 11z"/>
<path d="M3743 2915 c-43 -30 -36 -92 16 -139 l21 -20 -31 -32 c-42 -44 -44
-87 -4 -121 34 -30 66 -25 111 18 l30 29 20 -21 c47 -52 109 -59 139 -16 24
34 18 73 -16 112 l-32 36 32 32 c38 40 41 84 8 115 -33 31 -70 28 -112 -9
l-35 -31 -35 31 c-39 34 -78 40 -112 16z"/>
<path d="M380 1860 c-17 -17 -20 -33 -20 -124 0 -84 3 -108 18 -125 24 -30 76
-31 105 -2 20 19 22 32 22 127 0 99 -1 107 -24 125 -30 25 -76 24 -101 -1z"/>
<path d="M4639 1861 c-23 -18 -24 -26 -24 -125 0 -95 2 -108 22 -127 29 -29
81 -28 105 2 15 17 18 41 18 125 0 91 -3 107 -20 124 -25 25 -71 26 -101 1z"/>
</g>
</svg>
